HIERARCHY
ROOT Hips
{
  OFFSET 0 0 0
  CHANNELS 6 Xposition Yposition Zposition Zrotation Xrotation Yrotation
  JOINT LeftUpLeg
  {
    OFFSET 4.06525 -3.90732 0.41711
    CHANNELS 3 Zrotation Xrotation Yrotation
    JOINT LeftLeg
    {
      OFFSET 0.00023 -18.4821 0.00367
      CHANNELS 3 Zrotation Xrotation Yrotation
      JOINT LeftFoot
      {
        OFFSET -0.00172 -15.2898 -0.02629
        CHANNELS 3 Zrotation Xrotation Yrotation
        JOINT LeftToeBase
        {
          OFFSET 0.36743 -3.19131 5.54287
          CHANNELS 3 Zrotation Xrotation Yrotation
          JOINT LeftToeBase2
          {
            OFFSET 0.08751 0.04849 1.36758
            CHANNELS 3 Zrotation Xrotation Yrotation
            JOINT LeftToeBase3
            {
              OFFSET 0.07484 0.06785 1.16707
            }
          }
        }
      }
    }
  }
  JOINT RightUpLeg
  {
    OFFSET -4.06526 -3.90731 0.41712
    CHANNELS 3 Zrotation Xrotation Yrotation
    JOINT RightLeg
    {
      OFFSET -0.00029 -18.4821 0.0044
      CHANNELS 3 Zrotation Xrotation Yrotation
      JOINT RightFoot
      {
        OFFSET 0.0016 -15.2898 -0.02569
        CHANNELS 3 Zrotation Xrotation Yrotation
        JOINT RightToeBase
        {
          OFFSET -0.3542 -3.19109 5.54386
          CHANNELS 3 Zrotation Xrotation Yrotation
          JOINT RightToeBase2
          {
            OFFSET -0.08424 0.04854 1.36778
            CHANNELS 3 Zrotation Xrotation Yrotation
            JOINT RightToeBase3
            {
              OFFSET -0.07205 0.0679 1.16725
            }
          }
        }
      }
    }
  }
  JOINT Spine
  {
    OFFSET 1e-005 4.46517 -0.10224
    CHANNELS 3 Zrotation Xrotation Yrotation
    JOINT Spine1
    {
      OFFSET 1e-005 4.46212 -0.1824
      CHANNELS 3 Zrotation Xrotation Yrotation
      JOINT Spine2
      {
        OFFSET 0 4.37937 -0.881
        CHANNELS 3 Zrotation Xrotation Yrotation
        JOINT Spine3
        {
          OFFSET 1e-005 4.68286 0.21414
          CHANNELS 3 Zrotation Xrotation Yrotation
          JOINT Neck
          {
            OFFSET 0 1.76964 0.82454
            CHANNELS 3 Zrotation Xrotation Yrotation
            JOINT Head
            {
              OFFSET 0 1.6961 0.93145
              CHANNELS 3 Zrotation Xrotation Yrotation
              JOINT Head_End
              {
                OFFSET 1e-005 7.8375 1.52603
              }
            }
          }
          JOINT LeftShoulder
          {
            OFFSET 1.19381 -0.75881 -0.02768
            CHANNELS 3 Zrotation Xrotation Yrotation
            JOINT LeftArm
            {
              OFFSET 5.18779 -2e-005 1e-005
              CHANNELS 3 Zrotation Xrotation Yrotation
              JOINT LeftForeArm
              {
                OFFSET 12.7364 -4e-005 2e-005
                CHANNELS 3 Zrotation Xrotation Yrotation
                JOINT LeftHand
                {
                  OFFSET 9.21452 -2e-005 1e-005
                  CHANNELS 3 Zrotation Xrotation Yrotation
                }
              }
            }
          }
          JOINT RightShoulder
          {
            OFFSET -1.19381 -0.75881 -0.02767
            CHANNELS 3 Zrotation Xrotation Yrotation
            JOINT RightArm
            {
              OFFSET -5.18779 1e-005 -1e-005
              CHANNELS 3 Zrotation Xrotation Yrotation
              JOINT RightForeArm
              {
                OFFSET -12.7364 3e-005 -2e-005
                CHANNELS 3 Zrotation Xrotation Yrotation
                JOINT RightHand
                {
                  OFFSET -9.21452 2e-005 -1e-005
                  CHANNELS 3 Zrotation Xrotation Yrotation
                }
              }
            }
          }
        }
      }
    }
  }
}
MOTION
Frames: 15
Frame Time: 	0.0166667
2.75895e-006 40.7792 -1.66311e-005 -0.0022124 -2.64395 -9.99969e-005 1.08317 0.220528 0.440662  -0.000182893 50.8724 -0.0639581  2.10668 -9.97439 -9.16074  6.99662e-012 -1.7531e-011 9.24301e-011  -0 0 -0   -5.84446 -19.0315 -11.5913  5.53887e-005 24.7765 0.044799  0.855241 -2.11989 5.3249  -3.76697e-014 -1.29381e-011 1.02101e-010  -0 0 -0   0.0857065 -0.545161 -1.30134  0.351931 1.68875 -0.766616  0.589798 2.44001 -0.683534  1.23847 5.55372 -1.33987  5.87634 1.52133 -8.96978  -3.24561 -13.1883 -8.10212   0.0627515 2.0904 -9.2897  -67.4664 12.9944 -12.0787  -1.12602e-010 -8.43906e-011 -48.4736  19.2234 -13.8821 -7.65717  10.9215 1.70543 1.19801  65.992 5.22562 -6.14453  -7.64357e-012 1.7986e-011 3.95529  9.91379 3.21842 -15.1413 
-0.150885 40.8595 0.614083 -0.393367 -2.98285 0.634097 2.22705 -2.03992 0.615921  -0.000278002 55.6319 -0.0952705  0.514574 -5.42282 -9.66521  6.99662e-012 -1.7531e-011 9.24301e-011  -0 0 -0   -5.32093 -17.6451 -12.0466  0.000129929 25.1403 0.0993214  0.402463 -3.38017 5.20312  -3.76697e-014 -1.29381e-011 1.02101e-010  -0 0 -0   0.0802197 -0.510752 -1.13015  0.446076 1.72604 -0.683302  0.697962 2.52069 -0.583242  1.555 5.73512 -1.17538  5.99795 1.61543 -9.33421  -3.02275 -13.267 -8.46128   -0.0105068 2.09628 -9.58932  -67.7166 14.4105 -12.1926  -1.08943e-010 -8.83509e-011 -46.0463  18.2579 -15.0585 -6.11412  10.9224 1.79537 1.55733  65.6394 5.61909 -5.11116  -7.9135e-012 1.79653e-011 4.81566  10.6439 4.26426 -15.4915 
-0.298292 40.9427 1.21656 -0.749328 -3.32672 1.31506 3.31711 -4.31347 0.731172  -0.000393045 60.0451 -0.130733  -1.19064 -1.19327 -9.55579  6.99662e-012 -1.7531e-011 9.24301e-011  -0 0 -0   -4.82008 -16.1366 -12.6054  0.000199005 25.2353 0.154165  0.0988712 -4.61726 5.12589  -3.76697e-014 -1.29381e-011 1.02101e-010  -0 0 -0   0.0462929 -0.463539 -0.959945  0.523619 1.76163 -0.601688  0.785293 2.59662 -0.486197  1.82404 5.88687 -1.01515  6.18128 1.72941 -9.70182  -2.84184 -13.3367 -8.8192   -0.151558 2.10313 -9.85203  -67.8329 15.8841 -12.3698  -1.04647e-010 -9.26003e-011 -43.3261  16.5075 -15.8548 -4.76138  10.9591 1.90225 1.95675  65.2075 6.07539 -4.09726  -8.25341e-012 1.79334e-011 5.90065  10.9113 4.95363 -15.5019 
-0.436992 41.0254 1.80321 -1.07537 -3.66969 2.00996 4.2954 -6.52191 0.809062  -0.000527439 64.0445 -0.166576  -2.91908 2.0388 -8.4147  6.99662e-012 -1.7531e-011 9.24301e-011  -0 0 -0   -4.33052 -14.5476 -13.2176  0.000249939 25.0786 0.199482  -0.0670717 -5.72312 5.07723  -3.76697e-014 -1.29381e-011 1.02101e-010  -0 0 -0   0.0212332 -0.389326 -0.790556  0.589219 1.80111 -0.523964  0.853399 2.65657 -0.396077  2.03257 6.00618 -0.863074  6.38981 1.82422 -10.0378  -2.71412 -13.3523 -9.1472   -0.431475 2.13011 -10.0402  -67.7975 17.3086 -12.6042  -9.9749e-011 -9.69865e-011 -40.3665  14.0422 -16.0423 -3.85017  11.0533 2.03654 2.41121  64.6677 6.61679 -3.10083  -8.64602e-012 1.78885e-011 7.15653  10.6352 5.30915 -15.0996 
-0.562673 41.1041 2.37367 -1.36704 -3.99786 2.67342 5.11701 -8.66006 0.916562  -0.000671443 67.586 -0.197447  -4.59223 4.14393 -6.49987  6.99662e-012 -1.7531e-011 9.24301e-011  -0 0 -0   -3.83967 -12.9345 -13.787  0.000278017 24.7379 0.230362  -0.12792 -6.71941 5.01998  -3.76697e-014 -1.29381e-011 1.02101e-010  -0 0 -0   0.0181948 -0.294279 -0.618349  0.646872 1.84586 -0.441801  0.907111 2.70966 -0.303956  2.19856 6.09692 -0.707837  6.54418 1.8878 -10.3402  -2.60401 -13.3165 -9.43848   -0.817991 2.17605 -10.1751  -67.6963 18.6799 -12.8287  -9.42481e-011 -1.01406e-010 -37.19  11.1573 -15.5634 -3.33266  11.1617 2.18509 2.91157  63.9978 7.20772 -2.10389  -9.06478e-012 1.78309e-011 8.49987  10.0187 5.41875 -14.203 
-0.66885 41.1733 2.92592 -1.62377 -4.29894 3.24959 5.74136 -10.7023 1.12961  -0.000789326 70.6504 -0.214042  -5.79411 4.53538 -3.83056  6.99662e-012 -1.7531e-011 9.24301e-011  -0 0 -0   -3.35084 -11.3657 -14.2051  0.000278864 24.2901 0.240588  -0.119873 -7.59355 4.91045  -3.76697e-014 -1.29381e-011 1.02101e-010  -0 0 -0   0.0688359 -0.18112 -0.438909  0.702372 1.90015 -0.346659  0.952058 2.76334 -0.201458  2.33718 6.1608 -0.541251  6.54436 1.88517 -10.5985  -2.47685 -13.2082 -9.66822   -1.31909 2.2488 -10.2657  -67.586 19.9587 -12.9969  -8.80834e-011 -1.05801e-010 -33.7817  8.03605 -14.1123 -3.3651  11.2777 2.34159 3.46157  63.1335 7.8379 -1.08018  -9.47088e-012 1.77655e-011 9.80714  9.27089 5.35623 -12.5525 
-0.756011 41.235 3.46291 -1.84716 -4.57012 3.7351 6.18758 -12.6313 1.44016  -0.000848151 73.1051 -0.214541  -6.55692 3.73577 -0.763808  6.99662e-012 -1.7531e-011 9.24301e-011  -0 0 -0   -2.86934 -9.84488 -14.4772  0.000259745 23.7525 0.233542  -0.0588555 -8.3617 4.75109  -3.76697e-014 -1.29381e-011 1.02101e-010  -0 0 -0   0.167201 -0.0498621 -0.254096  0.757595 1.95871 -0.241303  0.990026 2.80919 -0.0903729  2.44634 6.19926 -0.35732  6.41376 1.84646 -10.803  -2.3411 -13.0532 -9.86193   -1.88533 2.34047 -10.3113  -67.5365 21.1442 -13.041  -8.15424e-011 -1.09895e-010 -30.3078  5.08436 -12.2058 -3.58656  11.3147 2.49596 4.03753  62.1726 8.45375 -0.0525439  -9.88483e-012 1.7689e-011 11.145  8.2924 5.18656 -10.6099 
-0.822674 41.2898 3.98382 -2.03254 -4.80738 4.10374 6.44169 -14.4303 1.87699  -0.000802068 74.8532 -0.197389  -6.7303 1.95562 2.39075  6.99662e-012 -1.7531e-011 9.24301e-011  -0 0 -0   -2.40482 -8.39244 -14.5524  0.00022653 23.158 0.212043  0.0276825 -9.02591 4.51475  -3.76697e-014 -1.29381e-011 1.02101e-010  -0 0 -0   0.312212 0.104734 -0.0589412  0.8154 2.01888 -0.124005  1.02189 2.83835 0.0320106  2.52079 6.21281 -0.141685  6.14507 1.77614 -10.9396  -2.20019 -12.8554 -10.045   -2.4659 2.45022 -10.321  -67.6423 22.2191 -12.8836  -7.48821e-011 -1.13527e-010 -26.8928  2.75311 -10.1403 -3.76537  11.1989 2.64388 4.60462  61.159 8.98863 0.982718  -1.03138e-011 1.7599e-011 12.5381  7.02902 4.98958 -8.74263 
-0.870024 41.3392 4.49465 -2.18086 -5.0027 4.35914 6.55755 -16.0832 2.41673  -0.0006493 75.7978 -0.168059  -6.42998 -0.341262 5.40731  6.99662e-012 -1.7531e-011 9.24301e-011  -0 0 -0   -1.97709 -7.00121 -14.4855  0.000186725 22.5073 0.181366  0.134919 -9.60413 4.24759  -3.76697e-014 -1.29381e-011 1.02101e-010  -0 0 -0   0.48714 0.257798 0.139192  0.873166 2.07365 6.24197e-005  1.05073 2.85591 0.160268  2.57972 6.20225 0.0884591  5.73306 1.71573 -11.0112  -2.03622 -12.6591 -10.1934   -3.0735 2.56491 -10.2741  -67.8863 23.1935 -12.5067  -6.83618e-011 -1.16604e-010 -23.6469  1.09013 -8.2713 -3.67005  10.8893 2.76207 5.19993  60.1907 9.47144 1.9722  -1.07582e-011 1.74943e-011 13.9889  5.55413 4.79455 -6.9741 
-0.897538 41.3862 5.00047 -2.285 -5.13573 4.47192 6.5522 -17.5807 3.07125  -0.000426343 75.8034 -0.132599  -5.9291 -2.64041 7.99216  6.99662e-012 -1.7531e-011 9.24301e-011  -0 0 -0   -1.60207 -5.68914 -14.2672  0.000145735 21.8099 0.146345  0.252558 -10.1044 3.968  -3.76697e-014 -1.29381e-011 1.02101e-010  -0 0 -0   0.672092 0.383263 0.339166  0.929347 2.11311 0.12885  1.08047 2.86366 0.292383  2.64478 6.16548 0.324604  5.13821 1.71505 -11.0116  -1.82774 -12.5172 -10.2904   -3.70754 2.67048 -10.1571  -68.3011 24.1356 -11.8388  -6.2421e-011 -1.19029e-010 -20.7585  0.509659 -7.11415 -2.89442  10.278 2.82123 5.87246  59.3976 9.95742 2.8584  -1.12126e-011 1.73748e-011 15.4821  3.83935 4.66109 -5.41799 
-0.909472 41.4289 5.50464 -2.35749 -5.23644 4.51281 6.46511 -18.8702 3.77063  -0.000201065 74.8866 -0.0957318  -5.32323 -4.86224 10.1209  6.99662e-012 -1.7531e-011 9.24301e-011  -0 0 -0   -1.28615 -4.39514 -14.028  0.000107069 21.0541 0.110122  0.377499 -10.5481 3.73443  -3.76697e-014 -1.29381e-011 1.02101e-010  -0 0 -0   0.863443 0.489743 0.530621  0.981658 2.14305 0.254676  1.10707 2.86244 0.420701  2.70098 6.11166 0.554776  4.45716 1.75328 -10.9531  -1.59187 -12.4078 -10.3403   -4.35775 2.76896 -9.95829  -68.8325 24.8534 -10.9631  -5.68896e-011 -1.20981e-010 -18.118  0.36339 -6.48667 -1.73082  9.49597 2.83528 6.5514  58.7273 10.3009 3.65727  -1.16999e-011 1.72324e-011 17.0956  2.13586 4.57802 -4.17063 
-0.910269 41.4667 6.01456 -2.4026 -5.3263 4.54194 6.31564 -19.9043 4.43039  -2.92614e-005 72.9948 -0.061419  -4.90794 -6.78587 11.5833  6.99662e-012 -1.7531e-011 9.24301e-011  -0 0 -0   -1.03015 -3.06909 -13.901  7.30992e-005 20.2288 0.0756518  0.500139 -10.9596 3.61886  -3.76697e-014 -1.29381e-011 1.02101e-010  -0 0 -0   1.04607 0.577069 0.699567  1.02631 2.16711 0.367672  1.12851 2.85458 0.535388  2.74504 6.05242 0.761354  3.769 1.82897 -10.8388  -1.33312 -12.3322 -10.3354   -5.01929 2.86056 -9.65268  -69.4547 25.1393 -9.94013  -5.16455e-011 -1.22573e-010 -15.651  0.0427586 -6.39972 -0.329076  8.6129 2.80316 7.20307  58.1831 10.3436 4.35384  -1.22535e-011 1.70523e-011 18.9459  0.701983 4.64993 -3.45836 
-0.899322 41.4988 6.52939 -2.43428 -5.409 4.56351 6.11513 -20.6563 5.08712  7.86331e-005 70.194 -0.0304001  -4.62272 -8.41536 12.5974  6.99662e-012 -1.7531e-011 9.24301e-011  -0 0 -0   -0.817289 -1.70889 -13.8665  4.44457e-005 19.3373 0.044785  0.63675 -11.3353 3.60083  -3.76697e-014 -1.29381e-011 1.02101e-010  -0 0 -0   1.23482 0.647587 0.854412  1.06657 2.18292 0.472385  1.14286 2.83859 0.640985  2.76273 5.97966 0.952891  3.08541 1.93414 -10.69  -1.06685 -12.2738 -10.295   -5.67525 2.93649 -9.26554  -70.1151 25.1088 -8.766  -4.68933e-011 -1.23806e-010 -13.4411  -0.157207 -6.78957 1.28948  7.70477 2.74122 7.76508  57.7273 10.1781 4.98342  -1.28322e-011 1.68425e-011 20.9022  -0.512084 4.58909 -3.00477 
-0.877876 41.5251 7.05291 -2.45787 -5.50488 4.60041 5.87447 -21.0602 5.7323  0.000130599 66.4719 -0.00361613  -4.49756 -9.70262 13.229  6.99662e-012 -1.7531e-011 9.24301e-011  -0 0 -0   -0.641785 -0.280005 -13.9687  2.13681e-005 18.3682 0.0189694  0.800355 -11.6722 3.70695  -3.76697e-014 -1.29381e-011 1.02101e-010  -0 0 -0   1.43912 0.709694 0.997296  1.10162 2.19199 0.56985  1.14365 2.81736 0.737987  2.72804 5.89094 1.13097  2.4558 2.06262 -10.5236  -0.798955 -12.2161 -10.2278   -6.29392 2.98491 -8.80998  -70.7683 24.8086 -7.44054  -4.2859e-011 -1.24701e-010 -11.5809  -0.0637119 -7.58318 3.16307  6.87325 2.66506 8.16426  57.3258 9.812 5.58736  -1.34055e-011 1.66122e-011 22.8657  -1.47345 4.06244 -2.62938 
-0.845761 41.542 7.58519 -2.50098 -5.58486 4.65963 5.60848 -21.1906 6.40849  0.000148863 62.0132 0.0192731  -4.43118 -10.5845 13.6932  6.99662e-012 -1.7531e-011 9.24301e-011  -0 0 -0   -0.461853 1.16767 -14.1505  2.93977e-006 17.3483 -0.00093228  0.990339 -11.9872 3.86791  -3.76697e-014 -1.29381e-011 1.02101e-010  -0 0 -0   1.65788 0.747003 1.13082  1.13985 2.1874 0.660745  1.14246 2.78123 0.828676  2.67319 5.7821 1.29882  1.84624 2.20754 -10.3562  -0.561624 -12.1594 -10.1589   -6.91275 3.01481 -8.29761  -71.3677 24.2377 -6.01338  -3.934e-011 -1.25371e-010 -9.96848  0.0813814 -8.81928 4.96326  6.10558 2.57593 8.39952  56.9717 9.34093 6.13257  -1.39784e-011 1.63588e-011 24.8564  -2.17189 3.31052 -2.2707 
